<?xml version="1.0" encoding="UTF-8"?>
<svg width="98px" height="60px" viewBox="0 0 98 60" version="1.1" xmlns="http://www.w3.org/2000/svg" xmlns:xlink="http://www.w3.org/1999/xlink">
    <title>WEBSITE_98x60</title>
    <g id="WEBSITE_98x60" stroke="none" stroke-width="1" fill="none" fill-rule="evenodd">
        <rect fill="#FFFFFF" x="0" y="0" width="98" height="60"></rect>
        <g id="Group" fill-rule="nonzero">
            <path d="M72.8953344,9.58666072 C72.690048,9.35720498 71.9482176,10.0868742 71.080416,9.83447292 C70.4225664,9.64631921 69.9186816,8.95336289 69.8253696,8.23746098 C69.7133952,7.35176184 70.240608,6.50277561 71.010432,6.14482466 C71.6962752,5.82358662 72.480096,5.94290361 73.0119744,6.26414164 C74.1923712,6.98004354 74.3510016,8.81568944 73.83312,10.077696 C73.3245696,11.316757 72.223488,11.835327 72.0228672,11.9271092 C70.6418496,12.5512289 69.3448128,12.0693718 68.8969152,11.8720399 C67.4505792,11.2249747 66.9093696,9.93543344 66.764736,9.53618046 C66.4521408,8.67342689 66.5127936,7.90704472 66.5734464,7.50779174 C66.2888448,6.97545443 65.8222848,6.24119607 65.0711232,5.54365062 C62.6403456,3.27203882 59.4490752,3.37758846 58.7539008,3.40053403 C58.4926272,3.40971226 55.7165952,3.53361836 53.3791296,5.31419489 C52.7586048,5.7868737 51.9841152,6.39263685 51.694848,7.40683121 C51.4662336,8.20074807 51.7275072,8.46691672 51.5735424,9.31590295 C51.3822528,10.3759885 50.575104,11.3305243 49.6373184,11.8399161 C48.452256,12.4869812 46.912608,12.5099268 45.699552,11.7848467 C45.4289472,11.6242277 44.229888,10.9083258 44.0059392,9.51323489 C43.7959872,8.20074807 44.4071808,6.47524092 45.7508736,6.1264682 C46.492704,5.93372538 47.4584832,6.158592 48.0043584,6.86072656 C48.63888,7.67758898 48.6528768,9.0818581 47.7570816,9.69221036 C47.1412224,10.1098198 46.236096,10.0639287 45.5035968,9.57289338 C45.4056192,9.75186885 45.3216384,9.99509193 45.3776256,10.2474932 C45.5502528,10.9817516 46.8286272,11.2892223 47.6311104,11.2892223 C47.729088,11.2892223 49.5206784,11.2570985 50.4444672,9.80693823 C51.3589248,8.36136708 50.62176,6.75976603 50.4398016,6.36051305 C49.6559808,4.66254059 47.9810304,4.0430101 47.4351552,3.84567816 C47.1272256,3.7309503 44.066592,2.66627567 41.4958464,4.65336236 C39.0417408,6.54866675 39.2283648,9.52700223 39.2516928,9.82529469 C39.3823296,11.4085393 40.1334912,12.5328724 40.5067392,13.0193186 C45.1116864,12.9917839 49.7212992,12.9642492 54.3262464,12.9367145 C54.4522176,12.5053377 54.7088256,11.8490943 55.2593664,11.2112073 C56.6543808,9.60501718 58.7072448,9.5499478 59.0105088,9.54535869 C61.026048,9.52241311 62.9436096,10.7752414 63.9560448,12.7347934 C68.58432,12.7898628 73.2125952,12.8449322 77.8362048,12.8954125 C79.5111552,10.2245477 79.1192448,6.88367213 77.0710464,4.96083305 C74.5422912,2.58826072 70.193952,3.04258308 68.3790336,5.22241259 C67.4785728,6.30085456 66.8067264,8.28335213 67.7631744,9.77481443 C68.6589696,11.1699053 70.7631552,11.8032031 71.9528832,11.119425 C72.6853824,10.7109938 73.0819584,9.80234911 72.8953344,9.58666072 Z" id="Path" fill="#A26D3E"></path>
            <path d="M46.5580224,0.0734258361 C47.1832128,0.321238033 48.3916032,0.899466492 49.4973504,2.22572066 C50.6964096,3.66211357 51.1443072,5.21323436 51.3122688,5.95208184 C51.7088448,5.39679895 54.2376,1.97790846 58.5672768,1.72091803 C63.3075264,1.44557115 66.2701824,5.19028879 66.6340992,5.66296761 C66.8860416,4.89199633 67.3572672,3.72636118 68.257728,2.57908249 C69.470784,1.03255082 70.8331392,0.316648918 71.570304,0 C63.2328768,0.0229455738 54.8954496,0.0458911475 46.5580224,0.0734258361 Z" id="Path" fill="#3D1111"></path>
            <path d="M52.7026176,18.8429052 C53.2764864,19.2651037 54.2469312,20.1003226 54.9747648,21.4632897 C55.5626304,22.5692664 55.7632512,23.5834607 55.8379008,24.2397041 C55.917216,22.2250828 57.550176,20.6418382 59.4350784,20.5684123 C61.515936,20.4903974 63.3915072,22.275563 63.3215232,24.5104619 C63.3308544,23.8817532 63.4334976,22.7069398 64.105344,21.4265768 C64.8891648,19.9305254 66.0229056,19.1090738 66.5734464,18.7648902 C61.9498368,18.7878358 57.3262272,18.8153705 52.7026176,18.8429052 Z" id="Path" fill="#A26D3E"></path>
            <path d="M52.511328,55.3126001 C53.0851968,54.8949907 54.0556416,54.06895 54.7834752,52.7243394 C55.3713408,51.6321301 55.5719616,50.627114 55.6466112,49.9846379 C55.7259264,51.9763137 57.3588864,53.5412018 59.2437888,53.6100386 C61.3246464,53.6880535 63.2002176,51.9212443 63.1302336,49.7138801 C63.1395648,50.3334106 63.242208,51.4990458 63.9140544,52.7610523 C64.6978752,54.2387473 65.831616,55.0510206 66.3821568,55.3952042 C61.7585472,55.3630804 57.1349376,55.3355457 52.511328,55.3126001 Z" id="Path" fill="#A26D3E"></path>
            <g transform="translate(40.590720, 13.002492)" id="Path">
                <g transform="translate(23.172480, 0.000000)">
                    <path d="M31.4243712,15.5096782 C29.6281152,10.0119187 25.909632,6.91426623 24.5472768,5.78993311 C19.424448,1.56335843 13.895712,0.732728656 11.7122112,0.521629377 C12.1041216,0.801565377 12.5006976,1.08150138 12.892608,1.36602649 C19.4757696,3.88086138 24.603264,8.80039239 26.6234688,14.9865191 C27.1040256,16.4596249 29.5068096,23.4901487 25.536384,30.6767024 C21.7619136,37.5053052 14.7261888,39.6025306 13.45248,39.9834271 C12.0574656,40.4010366 10.8537408,40.5937794 10.0139328,40.6947399 C8.3623104,40.9517304 6.897312,41.1215276 5.6795904,41.2362555 C5.6795904,41.2362555 4.3265664,41.3601616 2.5256448,41.4519439 C2.8102464,41.6859887 3.0995136,41.8879098 3.4027776,42.0714744 C3.5800704,42.0714744 3.7666944,42.0714744 3.9626496,42.0714744 C3.9626496,42.0714744 4.8631104,42.0668852 5.7915648,42.0393506 C8.3109888,41.9659247 10.4851584,41.7640037 10.4851584,41.7640037 C11.70288,41.6538649 13.1632128,41.4840677 14.8195008,41.2224881 C15.6593088,41.1215276 16.8630336,40.9287848 18.258048,40.5111753 C19.5317568,40.1302788 26.5674816,38.0376425 30.341952,31.2044506 C34.307712,24.0133078 31.904928,16.982784 31.4243712,15.5096782 Z" fill="#3D1111"></path>
                    <path d="M10.0092672,40.6947399 C10.8490752,40.5937794 12.0528,40.4010366 13.4478144,39.9834271 C14.7215232,39.6025306 21.757248,37.5098943 25.5317184,30.6767024 C29.502144,23.4855596 27.1040256,16.4550358 26.6188032,14.9865191 C24.5985984,8.80039239 19.471104,3.88545049 12.8879424,1.36602649 C11.3669568,0.783208918 9.766656,0.328886557 8.1057024,0.0214158689 C8.1010368,0.204980459 8.0963712,0.393134164 8.0917056,0.576698754 C15.8132736,2.7381718 21.9578688,8.06613403 24.2160192,14.9865191 C24.696576,16.4596249 27.09936,23.4901487 23.1289344,30.6767024 C19.354464,37.5053052 12.3187392,39.6025306 11.0450304,39.9834271 C9.650016,40.4010366 8.4462912,40.5937794 7.6064832,40.6947399 C5.9548608,40.9517304 5.6749248,41.2362555 5.6749248,41.2362555 C6.897312,41.1215276 8.3576448,40.9517304 10.0092672,40.6947399 Z" fill="#FFFFFF"></path>
                    <path d="M2.3343552,41.1490623 C2.60496,41.1628296 3.8740032,41.1215276 4.5131904,41.0802256 C5.0590656,41.0435127 5.9501952,40.979265 7.6064832,40.6947399 C8.4416256,40.5524774 9.650016,40.4010366 11.0450304,39.9834271 C12.3187392,39.6025306 19.354464,37.5098943 23.1289344,30.6767024 C27.0480384,23.5865201 24.673248,16.3494862 24.2160192,14.9865191 C20.6515008,4.30305993 9.533376,0.93923882 8.3529792,0.599644328 C7.2892224,0.296762754 5.6422656,2.706048 5.6096064,4.04606951 C7.410528,4.50498098 12.2067648,5.99185416 15.3467136,10.3698696 C16.8210432,12.425793 17.4975552,14.582677 17.7075072,15.2526877 C18.4773312,17.7353988 18.5099904,19.7316637 18.537984,21.5168294 C18.5659776,23.3387079 18.5986368,25.3992205 17.8708032,28.0058376 C17.5208832,29.258666 16.9423488,31.25952 15.3513792,33.3980475 C14.8334976,34.0955929 13.7604096,35.5090403 11.866176,36.7526904 C10.6391232,37.5557854 8.2689984,39.1069062 5.0963904,38.8269702 C2.7122688,38.615871 0.9859968,37.4685923 0.1181952,36.780225 C0.1461888,37.3584535 0.2861568,38.5424451 1.08864,39.735615 C1.5738624,40.4469277 1.928448,40.8599481 2.3343552,41.1490623 Z" fill="#3D1111"></path>
                </g>
                <g transform="translate(0.000000, 0.458911)">
                    <path d="M35.0059968,4.20209941 L2.1181824,4.20209941 C0.956448,4.20209941 0.0139968,3.27509823 0.0139968,2.13240866 L0.0139968,2.13240866 C0.0139968,0.989719082 0.956448,0.0627179016 2.1181824,0.0627179016 L35.0059968,0.0627179016 C36.1677312,0.0627179016 37.1101824,0.989719082 37.1101824,2.13240866 L37.1101824,2.13240866 C37.1101824,3.27509823 36.1677312,4.20209941 35.0059968,4.20209941 Z" fill="#3D1111"></path>
                    <path d="M34.3668096,2.08651751 C34.1801856,2.09110662 33.9935616,2.09569574 33.8069376,2.10028485 C33.7976064,2.56837456 33.7929408,3.03646426 33.7836096,3.50455397 C34.52544,3.49996485 35.2672704,3.49996485 36.0091008,3.49537574 C36.0044352,2.59132013 35.9997696,1.68726452 35.9997696,0.783208918 C27.5457024,0.796976262 21.2191488,0.778619803 16.9174656,0.760263344 C15.8770368,0.75567423 13.29696,0.741906885 9.7604352,0.732728656 C5.7946752,0.723550426 2.542752,0.728139541 0.373248,0.732728656 C0.373248,0.897936787 0.3779136,1.0585558 0.3779136,1.22376393 C1.1803968,1.22835305 1.98288,1.22835305 2.7853632,1.23294216 C2.7853632,1.83870531 2.7900288,2.44446846 2.7900288,3.05023161 C2.426112,3.05023161 2.0621952,3.04564249 1.702944,3.04564249 C1.702944,2.71981534 1.7076096,2.38939908 1.7076096,2.06357193 C1.5256512,2.06357193 1.3390272,2.05898282 1.1570688,2.05898282 C1.1570688,2.54083987 1.1617344,3.02728603 1.1617344,3.50914308 C1.889568,3.50455397 2.6174016,3.49996485 3.3452352,3.49537574 C3.3405696,2.7381718 3.335904,1.98555698 3.335904,1.22835305 C4.0637376,1.22835305 4.7915712,1.22835305 5.5194048,1.22835305 C5.5194048,1.83870531 5.5240704,2.44446846 5.5240704,3.05482072 C5.1741504,3.05482072 4.8242304,3.05023161 4.4743104,3.05023161 C4.478976,2.72440446 4.4836416,2.39857731 4.4883072,2.07275016 C4.3016832,2.07275016 4.1150592,2.06816105 3.9284352,2.06816105 C3.9284352,2.5500181 3.9284352,3.02728603 3.9284352,3.50914308 C4.6469376,3.50914308 5.36544,3.5137322 6.0839424,3.5137322 C6.0792768,2.75652826 6.0746112,1.99932433 6.0746112,1.24212039 C6.8024448,1.24212039 7.5302784,1.23753128 8.258112,1.23753128 C8.258112,1.84788354 8.258112,2.45364669 8.258112,3.06399895 C7.8895296,3.06399895 7.5209472,3.06858807 7.1523648,3.06858807 C7.1570304,2.7381718 7.1570304,2.40316643 7.161696,2.07275016 C6.9797376,2.07275016 6.7931136,2.07733928 6.6111552,2.07733928 C6.6111552,2.55460721 6.6111552,3.02728603 6.6111552,3.50455397 C7.3436544,3.50455397 8.0761536,3.49996485 8.8133184,3.49996485 C8.8133184,2.74276092 8.8133184,1.9901461 8.817984,1.23294216 C9.541152,1.23294216 10.2689856,1.23753128 10.9921536,1.23753128 C10.9921536,1.84788354 10.987488,2.4582358 10.987488,3.06858807 C10.6282368,3.06858807 10.2736512,3.06858807 9.9144,3.06858807 C9.9144,2.7381718 9.9144,2.40316643 9.9144,2.07275016 C9.7324416,2.07275016 9.5504832,2.07275016 9.3685248,2.07275016 C9.3685248,2.55460721 9.3638592,3.03187515 9.3638592,3.5137322 C10.0916928,3.5137322 10.8195264,3.51832131 11.54736,3.51832131 C11.54736,2.75652826 11.5426944,1.99473521 11.5426944,1.23294216 C12.2611968,1.23753128 12.9796992,1.23753128 13.693536,1.24212039 C13.6888704,1.85247266 13.6842048,2.4582358 13.6795392,3.06858807 C13.3156224,3.06858807 12.9517056,3.06399895 12.5831232,3.06399895 C12.5831232,2.73358269 12.5831232,2.40316643 12.5831232,2.07275016 C12.4011648,2.07275016 12.223872,2.07275016 12.0419136,2.07275016 C12.0419136,2.5500181 12.037248,3.02269692 12.037248,3.49996485 C12.7744128,3.50455397 13.5115776,3.5137322 14.2487424,3.51832131 C14.2440768,2.76111738 14.2394112,1.99932433 14.2394112,1.24212039 C14.9719104,1.24212039 15.699744,1.24212039 16.4322432,1.24212039 C16.4275776,1.85247266 16.422912,2.4582358 16.4182464,3.06858807 C16.0543296,3.06858807 15.6904128,3.06399895 15.3311616,3.06399895 C15.3358272,2.7381718 15.3404928,2.40775554 15.3451584,2.08192839 C15.1585344,2.08192839 14.9719104,2.08192839 14.7852864,2.08192839 C14.7852864,2.55919633 14.7852864,3.03187515 14.7852864,3.50914308 C15.5177856,3.50914308 16.2456192,3.50914308 16.9781184,3.5137322 C16.9781184,2.76111738 16.9781184,2.00391344 16.9781184,1.25129862 C17.6779584,1.25129862 18.3731328,1.25129862 19.0729728,1.25129862 C19.0729728,1.86165089 19.0683072,2.47200315 19.0683072,3.08235541 C18.7417152,3.08235541 18.4151232,3.0777663 18.0931968,3.0777663 C18.0931968,2.74735003 18.0931968,2.41693377 18.0931968,2.08651751 C17.9065728,2.08651751 17.7246144,2.08651751 17.5379904,2.08651751 C17.5379904,2.56837456 17.5379904,3.05023161 17.5379904,3.53208866 C18.2331648,3.53208866 18.9283392,3.53208866 19.6235136,3.53208866 C19.6281792,2.77029561 19.6281792,2.00850256 19.6328448,1.25129862 C20.3700096,1.25129862 21.1071744,1.25129862 21.8443392,1.25129862 C21.8443392,1.86165089 21.8490048,2.47200315 21.8490048,3.08235541 C21.4944192,3.08235541 21.1398336,3.08694452 20.785248,3.08694452 C20.785248,2.75652826 20.785248,2.42152289 20.785248,2.09110662 C20.6032896,2.09110662 20.4166656,2.08651751 20.2347072,2.08651751 C20.2347072,2.56837456 20.2347072,3.04564249 20.2347072,3.52749954 C20.9578752,3.52749954 21.6810432,3.52749954 22.4042112,3.52749954 C22.3995456,2.77029561 22.39488,2.01309167 22.3902144,1.25588774 C23.1133824,1.25588774 23.8365504,1.26047685 24.5597184,1.26047685 C24.5597184,1.87082911 24.5597184,2.48118138 24.5597184,3.09153364 C24.2191296,3.09153364 23.8785408,3.08694452 23.5332864,3.08694452 C23.5332864,2.75652826 23.537952,2.426112 23.537952,2.09569574 C23.351328,2.09569574 23.1693696,2.09569574 22.9827456,2.09569574 C22.9827456,2.57755279 22.97808,3.05482072 22.97808,3.53667777 C23.6919168,3.53667777 24.4057536,3.54126689 25.1195904,3.54126689 C25.1195904,2.77947384 25.1149248,2.01309167 25.1149248,1.25129862 C25.8567552,1.25588774 26.5985856,1.26047685 27.340416,1.26506597 C27.340416,1.87082911 27.3450816,2.47659226 27.3450816,3.08235541 C26.967168,3.08235541 26.5892544,3.08235541 26.2160064,3.08235541 C26.2160064,2.75193915 26.2160064,2.42152289 26.2160064,2.09110662 C26.0293824,2.09110662 25.8427584,2.09110662 25.6561344,2.09110662 C25.6561344,2.56837456 25.6561344,3.04564249 25.6561344,3.52749954 C26.407296,3.52291043 27.153792,3.51832131 27.9049536,3.5137322 C27.900288,2.76111738 27.8956224,2.00850256 27.8909568,1.25588774 C28.6047936,1.25588774 29.3139648,1.25588774 30.0278016,1.25588774 C30.0278016,1.86624 30.0278016,2.47659226 30.0278016,3.08694452 C29.6685504,3.08694452 29.3046336,3.08694452 28.9453824,3.08694452 C28.9453824,2.75652826 28.9453824,2.426112 28.9453824,2.09569574 C28.763424,2.09110662 28.5768,2.08651751 28.3948416,2.07733928 C28.3948416,2.56378544 28.3948416,3.04564249 28.3948416,3.53208866 C29.1226752,3.52291043 29.8505088,3.51832131 30.5783424,3.50914308 C30.5783424,2.75652826 30.583008,2.00391344 30.583008,1.25129862 C31.3015104,1.25588774 32.0200128,1.25588774 32.7385152,1.26047685 C32.7385152,1.86624 32.7385152,2.46741403 32.7385152,3.07317718 C32.3699328,3.0777663 32.0013504,3.0777663 31.632768,3.08235541 C31.632768,2.75193915 31.632768,2.42152289 31.6281024,2.09110662 C31.446144,2.09569574 31.2641856,2.09569574 31.0822272,2.10028485 C31.0775616,2.57296367 31.072896,3.05023161 31.0635648,3.52291043 C31.8053952,3.52749954 32.5518912,3.53208866 33.2937216,3.54126689 C33.289056,2.77947384 33.289056,2.0222699 33.2843904,1.26047685 C34.0075584,1.26047685 34.735392,1.25588774 35.45856,1.25588774 C35.4632256,1.86165089 35.4632256,2.46741403 35.4678912,3.0777663 C35.0993088,3.08235541 34.7307264,3.08235541 34.362144,3.08694452 C34.3574784,2.72899357 34.362144,2.40775554 34.3668096,2.08651751 Z" fill="#FFFFFF"></path>
                </g>
            </g>
            <path d="M56.4630912,25.313557 C56.3744448,33.4913595 56.2811328,41.669162 56.1924864,49.8515536 C56.2578048,51.5449369 57.7228032,52.8895475 59.439744,52.8344782 C61.166016,52.7794088 62.5377024,51.3338376 62.4817152,49.6358652 C62.5936896,41.4764191 62.7009984,33.3215622 62.8129728,25.1621162 C62.9716032,23.1520839 61.422624,21.5229482 59.7570048,21.4632897 C57.9654144,21.394453 56.2018176,23.1520839 56.4630912,25.313557 Z" id="Path" fill="#3D1111"></path>
            <g transform="translate(0.000000, 18.509430)" fill="#3D1111">
                <path d="M0,12.5680556 L0.1306368,11.5217374 L1.4276736,10.7415879 L1.4276736,2.18288892 L0.163296,1.80658151 L0.2239488,0.654713705 C1.772928,0.324297443 3.1306176,0.163678426 4.2876864,0.163678426 C4.922208,0.163678426 5.5007424,0.223336918 6.0279552,0.338064787 C6.555168,0.452792656 7.0123968,0.613411672 7.394976,0.815332721 C7.7775552,1.01725377 8.1228096,1.26965508 8.421408,1.56335843 C8.7200064,1.85706177 8.9672832,2.17371069 9.1585728,2.50871607 C9.3498624,2.84372144 9.5084928,3.21543974 9.634464,3.62387095 C9.7604352,4.03230216 9.844416,4.44073338 9.8957376,4.84457548 C9.9423936,5.25300669 9.9703872,5.68438348 9.9703872,6.13411672 C9.9703872,6.8133057 9.8864064,7.46496 9.7231104,8.09825784 C9.5598144,8.73155567 9.3125376,9.31437325 8.98128,9.85588879 C8.6500224,10.3974043 8.2534464,10.8700831 7.791552,11.2693361 C7.3296576,11.6685891 6.7837824,11.985238 6.1445952,12.2146938 C5.505408,12.4441495 4.8242304,12.5588774 4.0963968,12.5588774 L0,12.5588774 L0,12.5680556 Z M3.4898688,11.0582369 L4.3016832,11.0582369 C4.805568,11.0582369 5.2581312,10.9710437 5.6593728,10.7920682 C6.0606144,10.6130927 6.3825408,10.3790479 6.6344832,10.0899336 C6.8864256,9.80081941 7.091712,9.46122492 7.255008,9.07573928 C7.418304,8.69025364 7.534944,8.29558977 7.6002624,7.9009259 C7.6655808,7.50626203 7.69824,7.09783082 7.69824,6.66645403 C7.69824,6.02856708 7.6235904,5.41821482 7.4742912,4.83539725 C7.324992,4.25257967 7.1057088,3.72024236 6.8164416,3.23838531 C6.5271744,2.75652826 6.1399296,2.37104262 5.6593728,2.08651751 C5.1741504,1.80199239 4.6236096,1.65972984 4.0077504,1.65972984 C3.9004416,1.65972984 3.8071296,1.66431895 3.73248,1.6780863 C3.6578304,1.69185364 3.5785152,1.70103187 3.4945344,1.70562098 L3.4945344,11.0582369 L3.4898688,11.0582369 Z" id="Shape"></path>
                <path d="M10.6422336,12.5680556 L10.754208,11.5217374 L12.0652416,10.902207 L12.0652416,2.23336918 L10.73088,1.85706177 L10.8101952,0.682248393 C11.3933952,0.558342295 12.0792384,0.443614426 12.8723904,0.347243016 C13.6655424,0.250871607 14.3140608,0.200391344 14.8319424,0.200391344 C16.1476416,0.200391344 17.1414144,0.448203541 17.822592,0.943827934 C18.499104,1.43945233 18.8396928,2.2700821 18.8396928,3.43112813 C18.8396928,4.17456472 18.639072,4.86293193 18.2331648,5.49164066 C17.8272576,6.12034938 17.3420352,6.57467174 16.772832,6.84084039 L17.8832448,8.87381823 C18.1071936,9.28683856 18.289152,9.60348748 18.4151232,9.81458675 C18.54576,10.0302751 18.7043904,10.26432 18.89568,10.5258995 C19.0869696,10.7874791 19.2829248,10.9894001 19.47888,11.1316627 C19.6748352,11.2785144 19.8941184,11.3932422 20.132064,11.4758463 L20.3980032,11.5722177 L20.2300416,12.5588774 C19.8661248,12.7149073 19.4508864,12.7975113 18.9843264,12.7975113 C18.289152,12.7975113 17.7012864,12.5496991 17.2253952,12.0494856 C16.749504,11.5492721 16.3296,10.8379593 15.9656832,9.92013639 L15.0512256,7.6531137 L14.136768,7.6531137 L14.136768,10.8104247 L15.349824,11.3932422 L15.2705088,12.5680556 L10.6422336,12.5680556 Z M14.1414336,6.17541875 L15.4291392,6.17541875 C16.2082944,5.72109639 16.6002048,4.9776598 16.6002048,3.94510898 C16.6002048,3.24297443 16.4275776,2.66015685 16.0869888,2.19665626 C15.7464,1.73315567 15.27984,1.50369993 14.7013056,1.50369993 C14.6126592,1.50369993 14.5240128,1.50828905 14.440032,1.51287816 C14.3560512,1.51746728 14.2860672,1.52664551 14.2347456,1.52664551 C14.183424,1.53123462 14.1507648,1.53123462 14.1414336,1.53123462 L14.1414336,6.17541875 Z" id="Shape"></path>
                <polygon id="Path" points="21.0978432 1.38438295 21.2098176 0.301351869 29.1879936 0.301351869 28.9593792 3.94051987 28.0075968 3.75236616 27.550368 1.60466046 24.5550528 1.60466046 24.5550528 5.82664603 26.2859904 5.82664603 26.6079168 4.55546125 27.667008 4.28929259 27.4150656 8.46997613 26.3932992 8.69484275 26.150688 7.0289941 24.5550528 7.0289941 24.5550528 11.0811824 27.713664 11.0811824 28.6094592 8.85087266 29.5239168 8.99772433 29.3046336 12.5680556 21.1771584 12.5680556 21.251808 11.5217374 22.464864 10.902207 22.464864 1.93966584"></polygon>
                <path d="M30.186432,12.5680556 L30.2890752,11.5217374 L31.422816,10.7415879 L34.4694528,0.526218492 L36.2937024,0.0535396721 L39.1630464,10.78289 L40.217472,11.462079 L40.1381568,12.5772338 L35.5752,12.5772338 L35.6778432,11.5309157 L36.9235584,10.7507662 L36.3776832,8.69943187 L33.3963648,8.69943187 L32.8504896,10.7691226 L34.2268416,11.4391334 L34.128864,12.5634665 L30.186432,12.5634665 L30.186432,12.5680556 Z M33.7929408,7.16207843 L36.0091008,7.16207843 L34.9360128,2.8620779 L33.7929408,7.16207843 Z" id="Shape"></path>
                <polygon id="Path" points="40.9266432 12.5680556 41.0432832 11.4437225 42.2796672 10.824192 42.760224 1.93966584 41.4118656 1.44863056 41.500512 0.305940984 45.2189952 0.305940984 45.769536 2.27926033 47.2998528 8.37360472 49.0214592 2.10487397 49.5206784 0.310530098 53.18784 0.310530098 53.0851968 1.45321967 51.8721408 1.90754203 52.3200384 10.8792614 53.6357376 11.3932422 53.5470912 12.5772338 49.2127488 12.5772338 49.3433856 11.4529007 50.3604864 10.8333702 49.9639104 3.80284643 47.7337536 12.18257 46.2267648 12.4579169 44.0759232 3.93134164 43.7213376 10.8838505 44.8690752 11.3978313 44.7384384 12.581823 40.9266432 12.581823"></polygon>
            </g>
            <g transform="translate(15.396480, 32.888656)" fill="#3D1111">
                <polygon id="Path" points="0.1353024 0.152970492 8.8739712 0.152970492 8.63136 4.02618334 7.6095936 3.80131672 7.2363456 1.45627908 5.4400896 1.45627908 5.4400896 10.8318405 6.858432 11.2769847 6.7464576 12.4196742 2.0481984 12.4196742 2.122848 11.3641778 3.3965568 10.7905385 3.3965568 1.45168997 1.6516224 1.45168997 1.1384064 4.05371803 0.1726272 3.86556433"></polygon>
                <path d="M9.541152,12.4150851 L9.6531264,11.368767 L10.96416,10.7492365 L10.96416,2.0849878 L9.6297984,1.70868039 L9.7091136,0.533867016 C10.2923136,0.409960918 10.9781568,0.295233049 11.7713088,0.198861639 C12.5644608,0.10249023 13.2129792,0.0520099672 13.7308608,0.0520099672 C15.04656,0.0520099672 16.0403328,0.299822164 16.7215104,0.795446557 C17.3980224,1.29107095 17.7386112,2.12170072 17.7386112,3.28274675 C17.7386112,4.02618334 17.5379904,4.71455056 17.1320832,5.34325928 C16.726176,5.971968 16.2409536,6.42629036 15.6717504,6.69245902 L16.7821632,8.72543685 C17.006112,9.13845718 17.1880704,9.4551061 17.3140416,9.66620538 C17.4446784,9.88189377 17.6033088,10.1159386 17.7945984,10.3775182 C17.985888,10.6390977 18.1818432,10.8410188 18.3777984,10.9832813 C18.5737536,11.130133 18.7930368,11.2448609 19.0309824,11.3274649 L19.2969216,11.4238363 L19.12896,12.410496 C18.7650432,12.5665259 18.3498048,12.64913 17.8832448,12.64913 C17.1880704,12.64913 16.6002048,12.4013178 16.1243136,11.9011043 C15.6484224,11.4008908 15.2285184,10.6941671 14.8646016,9.77175502 L13.950144,7.50473233 L13.0356864,7.50473233 L13.0356864,10.6620433 L14.2487424,11.2448609 L14.1694272,12.4196742 L9.541152,12.4196742 L9.541152,12.4150851 Z M13.040352,6.02703738 L14.3280576,6.02703738 C15.1072128,5.57271502 15.4991232,4.82927843 15.4991232,3.79672761 C15.4991232,3.09459305 15.326496,2.51177548 14.9859072,2.04827489 C14.6453184,1.5847743 14.1787584,1.35531856 13.600224,1.35531856 C13.5115776,1.35531856 13.4229312,1.35990767 13.3389504,1.36449679 C13.2549696,1.3690859 13.1849856,1.37826413 13.133664,1.37826413 C13.0823424,1.38285325 13.0496832,1.38285325 13.040352,1.38285325 L13.040352,6.02703738 Z" id="Shape"></path>
                <polygon id="Path" points="20.015424 1.26353626 20.1273984 0.152970492 24.8069952 0.152970492 24.7090176 1.31860564 23.4259776 1.83258649 23.4259776 10.7630038 24.7603392 11.2356826 24.6716928 12.4196742 20.0480832 12.4196742 20.108736 11.3549996 21.3731136 10.7354691 21.3731136 1.83717561"></polygon>
                <polygon id="Path" points="25.5301632 12.4150851 25.6468032 11.290752 26.8831872 10.6712215 27.363744 1.78669534 26.0153856 1.29566007 26.104032 0.152970492 29.8225152 0.152970492 30.373056 2.12628984 31.9033728 8.22063423 33.6249792 1.95190348 34.1241984 0.157559607 37.79136 0.157559607 37.6887168 1.30024918 36.4756608 1.75457154 36.9235584 10.7262909 38.2392576 11.2402717 38.1506112 12.4242633 33.8162688 12.4242633 33.9469056 11.2999302 34.9640064 10.6803997 34.572096 3.6406977 32.3419392 12.0204212 30.8349504 12.2957681 28.6841088 3.76919292 28.3295232 10.7217018 29.4772608 11.2356826 29.346624 12.4196742 25.5301632 12.4196742"></polygon>
            </g>
            <g transform="translate(18.040320, 47.420852)" fill="#A37043">
                <path d="M0.6407424,4.93329836 C0.6407424,4.49274334 0.6407424,4.35965902 0.4867776,4.22657469 L0.365472,4.13020328 C0.3094848,4.06595567 0.3094848,3.86403462 0.365472,3.79978702 C0.7433856,3.65752446 1.3265856,3.359232 1.5831936,3.16190007 C1.648512,3.16190007 1.6998336,3.19402387 1.7324928,3.26286059 C1.7324928,3.41889049 1.7091648,3.68047003 1.7091648,3.75848498 C1.7091648,3.82273259 1.7278272,3.84567816 1.7511552,3.84567816 C1.7744832,3.84567816 1.858464,3.79060879 1.90512,3.75848498 C2.0870784,3.61622243 2.4556608,3.31792997 2.8522368,3.31792997 C3.1461696,3.31792997 3.4027776,3.4510143 3.5940672,3.73553941 C3.6920448,3.89156931 3.7433664,3.93287134 3.7900224,3.93287134 C3.8226816,3.93287134 3.8973312,3.85485639 4.051296,3.74471764 C4.2332544,3.61163331 4.5458496,3.31334085 4.9890816,3.31334085 C5.6376,3.31334085 5.9828544,3.94204957 5.9828544,4.70384262 L5.9828544,6.59914702 C5.9828544,7.3701183 6.0155136,7.45731148 6.2861184,7.50320262 L6.4167552,7.5261482 C6.4820736,7.5903958 6.4820736,7.84738623 6.407424,7.91163384 C6.150816,7.88868826 5.8382208,7.87951003 5.4463104,7.87951003 C5.1150528,7.87951003 4.7697984,7.88868826 4.5505152,7.91163384 C4.4758656,7.84738623 4.4758656,7.5903958 4.541184,7.5261482 L4.6718208,7.50320262 C4.8771072,7.47107882 4.9097664,7.3701183 4.9097664,6.76435515 L4.9097664,4.89199633 C4.9097664,4.47438689 4.7371392,4.12102505 4.3592256,4.12102505 C4.1306112,4.12102505 3.957984,4.26328761 3.8973312,4.39637193 C3.8693376,4.46061954 3.8460096,4.5707583 3.8460096,4.7267882 L3.8460096,6.76435515 C3.8460096,7.3701183 3.8786688,7.47107882 4.0699584,7.50320262 L4.2005952,7.5261482 C4.2659136,7.5903958 4.2659136,7.84738623 4.191264,7.91163384 C3.934656,7.88868826 3.6733824,7.87951003 3.3048,7.87951003 C2.978208,7.87951003 2.6469504,7.88868826 2.4323328,7.91163384 C2.3576832,7.84738623 2.3576832,7.5903958 2.4230016,7.5261482 L2.5536384,7.50320262 C2.744928,7.47107882 2.7775872,7.3701183 2.7775872,6.76435515 L2.7775872,4.89199633 C2.7775872,4.47438689 2.6142912,4.12102505 2.2177152,4.12102505 C2.0030976,4.12102505 1.8398016,4.26328761 1.7744832,4.3871937 C1.7231616,4.46520866 1.7091648,4.59829298 1.7091648,4.79562492 L1.7091648,6.76894426 C1.7091648,7.37470741 1.741824,7.47566793 1.9471104,7.50779174 L2.0777472,7.53073731 C2.1430656,7.59498492 2.1430656,7.85197534 2.068416,7.91622295 C1.811808,7.89327738 1.5505344,7.88409915 1.1539584,7.88409915 C0.785376,7.88409915 0.4634496,7.89327738 0.2161728,7.91622295 C0.132192,7.85197534 0.132192,7.59498492 0.1975104,7.53073731 L0.3281472,7.50779174 C0.598752,7.46190059 0.6314112,7.37470741 0.6314112,6.60373613 L0.6314112,4.93329836 L0.6407424,4.93329836 Z" id="Path"></path>
                <path d="M6.8319936,5.75933902 C6.8226624,4.18527266 7.7511168,3.31334085 8.7215616,3.31334085 C9.6920064,3.31334085 10.5644736,4.1072577 10.5644736,5.65837849 C10.5644736,7.26456866 9.6826752,8.02638269 8.6749056,8.02638269 C7.6951296,8.03095082 6.8366592,7.28292511 6.8319936,5.75933902 Z M8.0123904,5.52070505 C8.0123904,6.67716197 8.2829952,7.5261482 8.7588864,7.5261482 C9.2254464,7.5261482 9.3840768,6.8102463 9.3747456,5.81899751 C9.3654144,4.74973377 9.1368,3.82729015 8.6655744,3.82729015 C8.3109888,3.82273259 8.0123904,4.31835698 8.0123904,5.52070505 Z" id="Shape"></path>
                <path d="M14.6935296,6.42017154 C14.6935296,7.07182584 14.7168576,7.35635095 14.9174784,7.35635095 C15.0247872,7.35635095 15.1460928,7.3104598 15.2440704,7.26915777 C15.31872,7.29210334 15.3280512,7.68676721 15.2207424,7.74183659 C14.4135936,7.78772774 13.7230848,8.13650046 13.6997568,8.13650046 C13.6437696,8.12732223 13.6111104,8.07225285 13.6017792,8.00341613 C13.6204416,7.8703318 13.6251072,7.69594544 13.6251072,7.60875226 C13.6251072,7.54450466 13.5831168,7.49861351 13.5364608,7.49861351 C13.2145344,7.77396039 12.9299328,8.0263617 12.4167168,8.0263617 C11.7355392,8.0263617 11.4556032,7.55368289 11.4556032,6.61750348 L11.4556032,4.74514466 C11.4556032,4.16232708 11.4042816,4.1072577 11.2083264,4.02924275 L11.1010176,3.98335161 C11.0450304,3.88239108 11.049696,3.67588092 11.1336768,3.59786597 C11.4042816,3.58868774 11.6935488,3.55197482 11.9314944,3.49690544 C12.1787712,3.44183607 12.4167168,3.30875174 12.449376,3.30875174 C12.5006976,3.30875174 12.5380224,3.38676669 12.5473536,3.44183607 C12.5286912,3.71718295 12.5240256,4.01547541 12.5240256,4.41013928 L12.5240256,6.22742872 C12.5240256,6.75517692 12.5800128,7.21867751 13.1072256,7.21867751 C13.33584,7.21867751 13.4711424,7.07641495 13.5364608,7.00757823 C13.592448,6.95250885 13.6251072,6.78730072 13.6251072,6.67716197 L13.6251072,4.59370387 C13.6251072,4.15314885 13.56912,4.05218833 13.2705216,3.99711895 L13.1538816,3.97417338 C13.0885632,3.89615843 13.0978944,3.63457889 13.195872,3.58868774 C13.4898048,3.56574216 13.7884032,3.52444013 14.0496768,3.47854898 C14.338944,3.42347961 14.5862208,3.30416262 14.6328768,3.30416262 C14.665536,3.30416262 14.7075264,3.359232 14.7168576,3.43724695 C14.7075264,3.63457889 14.6935296,3.99711895 14.6935296,4.40555016 L14.6935296,6.42017154 L14.6935296,6.42017154 Z" id="Path"></path>
                <path d="M15.9159168,1.75304184 C15.9159168,1.31248682 15.9159168,1.19316984 15.7526208,1.06008551 L15.6126528,0.949946754 C15.5566656,0.885699148 15.5566656,0.683778098 15.6126528,0.619530492 C15.9672384,0.509391738 16.4571264,0.243223082 16.8723648,0.00458911475 C16.9236864,0.00458911475 16.9796736,0.0275346885 17.0123328,0.0826040656 C16.9936704,0.532337311 16.9890048,0.995837902 16.9890048,1.68879423 L16.9890048,6.60373613 C16.9890048,7.37470741 17.021664,7.46190059 17.3109312,7.50779174 L17.4508992,7.53073731 C17.5162176,7.59498492 17.5162176,7.85197534 17.441568,7.91622295 C17.1709632,7.89327738 16.8257088,7.88409915 16.4571264,7.88409915 C16.1025408,7.88409915 15.7572864,7.89327738 15.4726848,7.91622295 C15.3980352,7.85197534 15.3980352,7.59498492 15.4633536,7.53073731 L15.6173184,7.50779174 C15.8879232,7.47566793 15.9205824,7.37470741 15.9205824,6.60373613 L15.9205824,1.75304184 L15.9159168,1.75304184 Z" id="Path"></path>
                <path d="M21.407328,6.07139882 C21.407328,7.10853875 21.4399872,7.36094007 21.5986176,7.36094007 C21.7479168,7.36094007 21.8132352,7.33799449 21.9532032,7.27374689 C22.0418496,7.37470741 22.0418496,7.6500543 21.9625344,7.7464257 C21.15072,7.81067331 20.5068672,8.14108957 20.4835392,8.14108957 C20.427552,8.14108957 20.3622336,8.07684197 20.3435712,7.98505967 L20.3668992,7.64546518 C20.357568,7.558272 20.3249088,7.5261482 20.2922496,7.558272 C20.0029824,7.80149508 19.7090496,8.03095082 19.4057856,8.03095082 C18.468,8.03095082 17.8334784,7.04888026 17.8334784,5.86029954 C17.8334784,4.30917875 18.7059456,3.31792997 19.7883648,3.31792997 C19.9703232,3.31792997 20.1662784,3.34087554 20.2549248,3.37299934 C20.310912,3.34087554 20.3389056,3.25368236 20.3389056,3.16190007 L20.3389056,1.75304184 C20.3389056,1.31248682 20.3389056,1.19316984 20.1756096,1.06008551 L20.0356416,0.949946754 C19.9703232,0.885699148 19.9796544,0.683778098 20.0356416,0.619530492 C20.3902272,0.509391738 20.8894464,0.243223082 21.2953536,0.00458911475 C21.3513408,0.00458911475 21.4026624,0.0275346885 21.4353216,0.0826040656 C21.4166592,0.532337311 21.4119936,0.995837902 21.4119936,1.68879423 L21.4119936,6.07139882 L21.407328,6.07139882 Z M20.3389056,4.6028821 C20.3389056,4.42849574 20.3155776,4.31835698 20.2829184,4.22657469 C20.1849408,3.99711895 20.0029824,3.81814348 19.8163584,3.81814348 C19.3964544,3.81814348 18.9858816,4.40096105 18.9858816,5.55741797 C18.9858816,6.2824981 19.2331584,7.28751423 19.9050048,7.28751423 C20.0216448,7.28751423 20.1336192,7.24162308 20.240928,7.1544299 C20.3295744,7.07641495 20.3389056,6.93415239 20.3389056,6.73682046 L20.3389056,4.6028821 Z" id="Shape"></path>
                <path d="M23.7541248,6.59914702 C23.7541248,7.3701183 23.786784,7.47107882 24.0573888,7.50320262 L24.2113536,7.5261482 C24.276672,7.5903958 24.276672,7.84738623 24.2020224,7.91163384 C23.9127552,7.88868826 23.5954944,7.87951003 23.2175808,7.87951003 C22.8489984,7.87951003 22.503744,7.88868826 22.2331392,7.91163384 C22.1584896,7.84738623 22.1584896,7.5903958 22.223808,7.5261482 L22.3777728,7.50320262 C22.6483776,7.47107882 22.6810368,7.3701183 22.6810368,6.59914702 L22.6810368,4.93788748 C22.6810368,4.49733246 22.6810368,4.36424813 22.527072,4.2311638 L22.410432,4.13020328 C22.3544448,4.06595567 22.3544448,3.86403462 22.410432,3.79978702 C22.7976768,3.65752446 23.3808768,3.359232 23.6281536,3.16190007 C23.693472,3.16190007 23.7447936,3.19402387 23.7774528,3.26286059 C23.7587904,3.59327685 23.7541248,4.07972302 23.7541248,4.57534741 L23.7541248,6.59914702 L23.7541248,6.59914702 Z M23.8194432,1.61995751 C23.8194432,2.1477057 23.5161792,2.42305259 23.203584,2.42305259 C22.8396672,2.42305259 22.6297152,2.09263633 22.6297152,1.64290308 C22.6297152,1.15645692 22.9189824,0.839808 23.2455744,0.839808 C23.5861632,0.835218885 23.8194432,1.17940249 23.8194432,1.61995751 Z" id="Shape"></path>
                <path d="M25.0371648,4.93329836 C25.0371648,4.49274334 25.0371648,4.35965902 24.8832,4.22657469 L24.76656,4.13020328 C24.7105728,4.06595567 24.7105728,3.86403462 24.76656,3.79978702 C25.1538048,3.65752446 25.746336,3.359232 25.9842816,3.16190007 C26.0496,3.16190007 26.1009216,3.19402387 26.1335808,3.26286059 C26.1335808,3.41889049 26.1102528,3.68047003 26.1102528,3.75848498 C26.1102528,3.82273259 26.1289152,3.84567816 26.1522432,3.84567816 C26.1755712,3.84567816 26.259552,3.79060879 26.306208,3.75848498 C26.4881664,3.61622243 26.8754112,3.31792997 27.2533248,3.31792997 C27.9345024,3.31792997 28.2797568,3.94663869 28.2797568,4.70843174 L28.2797568,6.60373613 C28.2797568,7.37470741 28.312416,7.46190059 28.6110144,7.50779174 L28.7416512,7.53073731 C28.8069696,7.59498492 28.8069696,7.85197534 28.73232,7.91622295 C28.475712,7.89327738 28.1304576,7.88409915 27.7385472,7.88409915 C27.4072896,7.88409915 27.0900288,7.89327738 26.8520832,7.91622295 C26.7774336,7.85197534 26.7774336,7.59498492 26.842752,7.53073731 L26.9920512,7.49861351 C27.1833408,7.45272236 27.216,7.37929652 27.216,6.77353338 L27.216,4.91035279 C27.216,4.478976 27.052704,4.13020328 26.6421312,4.13020328 C26.4135168,4.13020328 26.2455552,4.27246584 26.1802368,4.39637193 C26.1289152,4.47438689 26.1149184,4.60747121 26.1149184,4.80480315 L26.1149184,6.77812249 C26.1149184,7.38388564 26.1475776,7.48484616 26.352864,7.51696997 L26.4835008,7.53991554 C26.5488192,7.60416315 26.5488192,7.86115357 26.4741696,7.92540118 C26.2175616,7.90245561 25.956288,7.89327738 25.559712,7.89327738 C25.2144576,7.89327738 24.8785344,7.90245561 24.5892672,7.92540118 C24.5146176,7.86115357 24.5146176,7.60416315 24.579936,7.53991554 L24.7105728,7.51696997 C25.0045056,7.47107882 25.0418304,7.38388564 25.0418304,6.61291436 L25.0418304,4.93329836 L25.0371648,4.93329836 Z" id="Path"></path>
                <path d="M32.9126976,3.72177207 C32.9686848,3.78601967 32.9873472,3.87780197 32.9873472,3.99711895 C32.9873472,4.17150531 32.9453568,4.37342636 32.8660416,4.43767397 L32.2595136,4.43767397 C32.278176,4.53863449 32.2828416,4.6350059 32.2828416,4.82315961 C32.2828416,5.69509141 31.8955968,6.7505878 30.59856,6.7505878 C30.4679232,6.7505878 30.3512832,6.72764223 30.2626368,6.718464 C30.178656,6.76435515 30.1226688,6.85154833 30.1226688,6.98463266 C30.1226688,7.22785574 30.295296,7.37929652 30.5425728,7.37929652 C30.8225088,7.37929652 31.158432,7.35635095 31.5456768,7.35635095 C32.161536,7.35635095 32.8193856,7.57662846 32.8193856,8.68719423 C32.8193856,9.38015056 32.5067904,9.99968105 32.0775552,10.3484538 C31.64832,10.6880483 31.1164416,10.8348999 30.6405504,10.8348999 C29.455488,10.8348999 29.0309184,10.1098198 29.0309184,9.4260417 C29.0309184,9.15987305 29.152224,8.98548669 29.292192,8.87534793 C29.455488,8.74226361 29.6047872,8.60000105 29.6934336,8.53575344 C29.7914112,8.45773849 29.7680832,8.40266911 29.7027648,8.37972354 C29.3995008,8.24663921 29.1942144,7.88409915 29.1942144,7.49861351 C29.1942144,7.41142033 29.2128768,7.32422715 29.2502016,7.26915777 C29.478816,7.07182584 29.7260928,6.81942452 29.7774144,6.7505878 C29.852064,6.67257285 29.8847232,6.60832525 29.8427328,6.50736472 C29.43216,6.28708721 29.1428928,5.75933902 29.1428928,5.08473915 C29.1428928,4.17150531 29.6794368,3.30875174 30.7478592,3.30875174 C31.2330816,3.30875174 31.6669824,3.49690544 31.974912,3.71718295 L32.9126976,3.71718295 L32.9126976,3.72177207 Z M30.5938944,8.49445141 C30.3699456,8.49445141 30.2066496,8.55869902 30.132,8.63671397 C30.0480192,8.73767449 30.01536,8.87993705 30.01536,9.02219961 C30.01536,9.77022531 30.435264,10.2566715 31.0837824,10.2566715 C31.601664,10.2566715 31.9469184,9.91707698 31.9469184,9.38473967 C31.9469184,8.74685272 31.5923328,8.49445141 31.1397696,8.49445141 L30.5938944,8.49445141 Z M30.7758528,6.25496341 C31.0324608,6.25496341 31.2424128,5.93372538 31.2424128,5.1306303 C31.2424128,4.24034203 31.0044672,3.81814348 30.7058688,3.81814348 C30.4492608,3.81814348 30.201984,4.14855974 30.201984,4.89658544 C30.2066496,5.74098256 30.4445952,6.25496341 30.7758528,6.25496341 Z" id="Shape"></path>
            </g>
        </g>
    </g>
</svg>